# Blender v2.71 (sub 0) OBJ File: ''
# www.blender.org
v 0.000000 -1.000000 -9.000000
v 0.723607 -0.447220 -8.474275
v -0.276388 -0.447220 -8.149351
v -0.894426 -0.447216 -9.000000
v -0.276388 -0.447220 -9.850649
v 0.723607 -0.447220 -9.525725
v 0.276388 0.447220 -8.149351
v -0.723607 0.447220 -8.474275
v -0.723607 0.447220 -9.525725
v 0.276388 0.447220 -9.850649
v 0.894426 0.447216 -9.000000
v 0.000000 1.000000 -9.000000
v -0.162456 -0.850654 -8.500005
v 0.425323 -0.850654 -8.690989
v 0.262869 -0.525738 -8.190989
v 0.850648 -0.525736 -9.000000
v 0.425323 -0.850654 -9.309011
v -0.525730 -0.850652 -9.000000
v -0.688189 -0.525736 -8.500003
v -0.162456 -0.850654 -9.499995
v -0.688189 -0.525736 -9.499997
v 0.262869 -0.525738 -9.809011
v 0.951058 0.000000 -8.690988
v 0.951058 0.000000 -9.309012
v 0.000000 0.000000 -8.000000
v 0.587786 0.000000 -8.190983
v -0.951058 0.000000 -8.690988
v -0.587786 0.000000 -8.190983
v -0.587786 0.000000 -9.809017
v -0.951058 0.000000 -9.309012
v 0.587786 0.000000 -9.809017
v 0.000000 0.000000 -10.000000
v 0.688189 0.525736 -8.500003
v -0.262869 0.525738 -8.190989
v -0.850648 0.525736 -9.000000
v -0.262869 0.525738 -9.809011
v 0.688189 0.525736 -9.499997
v 0.162456 0.850654 -8.500005
v 0.525730 0.850652 -9.000000
v -0.425323 0.850654 -8.690989
v -0.425323 0.850654 -9.309011
v 0.162456 0.850654 -9.499995
vt 1.447270 0.147185
vt 1.429943 -0.210103
vt 1.312613 0.343789
vt 1.111340 -0.358927
vt 1.180692 -0.453215
vt 1.188651 0.687539
vt 1.223441 0.364575
vt 1.366216 -0.160991
vt 0.701691 -0.385692
vt 0.882855 0.626600
vt 1.098417 0.045015
vt 0.461399 0.532110
vt 0.715341 1.187449
vt 0.856779 0.991579
vt 0.252351 1.448197
vt 0.809817 0.611130
vt 0.814190 0.944612
vt 0.342162 1.035421
vt 1.039643 -0.261316
vt 0.993740 0.125358
vt 0.590044 0.028289
vt 0.616359 -0.070971
vt 0.319919 1.134458
vt 0.264986 1.387885
vt 0.685062 -0.325156
vt 0.045972 0.425663
vt 0.092052 0.049584
vt -0.387210 0.692953
vt -0.178863 1.428323
vt -0.177843 1.015556
vt -0.512319 1.265838
vt -0.109185 1.329634
vt -0.246036 1.523777
vt -0.447926 1.217813
vt 0.117110 0.444898
vt -0.072494 0.936318
vt -0.298559 0.677624
vt 0.242232 -0.143567
vt 0.129481 0.101120
vt -0.248056 0.341426
vt -0.527061 0.889655
vn 0.000000 -1.000000 0.000000
vn 0.425300 -0.850600 0.309000
vn -0.162500 -0.850600 0.500000
vn 0.723600 -0.447200 0.525700
vn 0.850600 -0.525700 0.000000
vn -0.525700 -0.850600 0.000000
vn -0.162500 -0.850600 -0.500000
vn 0.425300 -0.850600 -0.309000
vn 0.951000 0.000000 0.309000
vn -0.276400 -0.447200 0.850600
vn 0.262900 -0.525700 0.809000
vn 0.000000 0.000000 1.000000
vn -0.894400 -0.447200 0.000000
vn -0.688200 -0.525700 0.500000
vn -0.951000 0.000000 0.309000
vn -0.276400 -0.447200 -0.850600
vn -0.688200 -0.525700 -0.500000
vn -0.587800 0.000000 -0.809000
vn 0.723600 -0.447200 -0.525700
vn 0.262900 -0.525700 -0.809000
vn 0.587800 0.000000 -0.809000
vn 0.587800 0.000000 0.809000
vn -0.587800 0.000000 0.809000
vn -0.951000 0.000000 -0.309000
vn 0.000000 0.000000 -1.000000
vn 0.951000 0.000000 -0.309000
vn 0.276400 0.447200 0.850600
vn 0.688200 0.525700 0.500000
vn 0.162500 0.850600 0.500000
vn -0.723600 0.447200 0.525700
vn -0.262900 0.525700 0.809000
vn -0.425300 0.850600 0.309000
vn -0.723600 0.447200 -0.525700
vn -0.850600 0.525700 0.000000
vn -0.425300 0.850600 -0.309000
vn 0.276400 0.447200 -0.850600
vn -0.262900 0.525700 -0.809000
vn 0.162500 0.850600 -0.500000
vn 0.894400 0.447200 0.000000
vn 0.688200 0.525700 -0.500000
vn 0.525700 0.850600 0.000000
vn 0.000000 1.000000 0.000000
s 1
f 1/1/1 14/2/2 13/3/3
f 2/4/4 14/2/2 16/5/5
f 1/1/1 13/3/3 18/6/6
f 1/1/1 18/6/6 20/7/7
f 1/1/1 20/7/7 17/8/8
f 2/4/4 16/5/5 23/9/9
f 3/10/10 15/11/11 25/12/12
f 4/13/13 19/14/14 27/15/15
f 5/16/16 21/17/17 29/18/18
f 6/19/19 22/20/20 31/21/21
f 2/4/4 23/9/9 26/22/22
f 3/10/10 25/12/12 28/23/23
f 4/13/13 27/15/15 30/24/24
f 5/16/16 29/18/18 32/12/25
f 6/19/19 31/21/21 24/25/26
f 7/26/27 33/27/28 38/28/29
f 8/29/30 34/30/31 40/31/32
f 9/32/33 35/33/34 41/34/35
f 10/35/36 36/36/37 42/37/38
f 11/38/39 37/39/40 39/40/41
f 13/3/3 15/11/11 3/10/10
f 13/3/3 14/2/2 15/11/11
f 14/2/2 2/4/4 15/11/11
f 16/5/5 17/8/8 6/19/19
f 16/5/5 14/2/2 17/8/8
f 14/2/2 1/1/1 17/8/8
f 18/6/6 19/14/14 4/13/13
f 18/6/6 13/3/3 19/14/14
f 13/3/3 3/10/10 19/14/14
f 20/7/7 21/17/17 5/16/16
f 20/7/7 18/6/6 21/17/17
f 18/6/6 4/13/13 21/17/17
f 17/8/8 22/20/20 6/19/19
f 17/8/8 20/7/7 22/20/20
f 20/7/7 5/16/16 22/20/20
f 23/9/9 24/25/26 11/38/39
f 23/9/9 16/5/5 24/25/26
f 16/5/5 6/19/19 24/25/26
f 25/12/12 26/22/22 7/26/27
f 25/12/12 15/11/11 26/22/22
f 15/11/11 2/4/4 26/22/22
f 27/15/15 28/23/23 8/29/30
f 27/15/15 19/14/14 28/23/23
f 19/14/14 3/10/10 28/23/23
f 29/18/18 30/24/24 9/32/33
f 29/18/18 21/17/17 30/24/24
f 21/17/17 4/13/13 30/24/24
f 31/21/21 32/12/25 10/35/36
f 31/21/21 22/20/20 32/12/25
f 22/20/20 5/16/16 32/12/25
f 26/22/22 33/27/28 7/26/27
f 26/22/22 23/9/9 33/27/28
f 23/9/9 11/38/39 33/27/28
f 28/23/23 34/30/31 8/29/30
f 28/23/23 25/12/12 34/30/31
f 25/12/12 7/26/27 34/30/31
f 30/24/24 35/33/34 9/32/33
f 30/24/24 27/15/15 35/33/34
f 27/15/15 8/29/30 35/33/34
f 32/12/25 36/36/37 10/35/36
f 32/12/25 29/18/18 36/36/37
f 29/18/18 9/32/33 36/36/37
f 24/25/26 37/39/40 11/38/39
f 24/25/26 31/21/21 37/39/40
f 31/21/21 10/35/36 37/39/40
f 38/28/29 39/40/41 12/41/42
f 38/28/29 33/27/28 39/40/41
f 33/27/28 11/38/39 39/40/41
f 40/31/32 38/28/29 12/41/42
f 40/31/32 34/30/31 38/28/29
f 34/30/31 7/26/27 38/28/29
f 41/34/35 40/31/32 12/41/42
f 41/34/35 35/33/34 40/31/32
f 35/33/34 8/29/30 40/31/32
f 42/37/38 41/34/35 12/41/42
f 42/37/38 36/36/37 41/34/35
f 36/36/37 9/32/33 41/34/35
f 39/40/41 42/37/38 12/41/42
f 39/40/41 37/39/40 42/37/38
f 37/39/40 10/35/36 42/37/38
