# This file uses centimeters as units for non-parametric coordinates.

mtllib cactus.mtl
g default
v -0.992073 0.000000 0.350133
v 1.563410 0.000000 0.372154
v 1.059365 9.943877 0.524799
v 3.937249 10.390833 0.518655
v 0.912139 9.914961 -0.524878
v 4.033076 10.402581 -0.518463
v -0.992073 0.000000 -0.350133
v 1.563410 0.000000 -0.372154
v 4.075125 7.254091 0.529029
v 0.584967 7.303086 0.523200
v 0.584967 7.303086 -0.523200
v 4.075125 7.254091 -0.529029
v 0.344079 4.976074 0.476974
v 0.344079 4.976074 -0.476974
v 3.344217 4.548844 -0.460357
v 3.344217 4.548844 0.460357
v 2.249420 1.832752 0.443663
v -0.187843 2.289497 0.425132
v -0.187843 2.289497 -0.425132
v 2.249420 1.832752 -0.443663
v 2.291182 7.274952 1.111027
v 1.824878 4.770288 1.043016
v 0.935201 2.078043 0.883949
v 0.291805 0.000000 0.576291
v 0.291805 0.000000 -0.576291
v 0.935201 2.078043 -0.883949
v 1.824878 4.770288 -1.043016
v 2.291182 7.274952 -1.111027
v 2.457983 10.447430 -0.885403
v 2.457983 10.447430 0.885403
v 4.473691 10.677824 0.002030
v 2.422756 10.852847 -0.004018
v 0.523743 10.129957 0.001817
v 0.231477 7.351156 -0.000217
v 0.037542 5.032403 -0.000613
v -0.476991 2.349133 0.000250
v -1.293636 0.000000 0.003458
v 1.651111 -0.000001 0.003245
v 2.513792 1.779599 0.000035
v 3.620391 4.503875 -0.000265
v 4.404424 7.239558 -0.000113
v -1.365379 -0.163645 -0.281178
v 0.582345 -0.065714 -0.265969
v -4.040143 7.949378 -0.053871
v -1.605698 9.257351 -0.059702
v -4.162775 7.877050 -1.049912
v -1.523648 9.298100 -1.043825
v -1.365379 -0.163645 -0.822531
v 0.582345 -0.065714 -0.837740
v -0.350554 6.299633 -0.065348
v -3.382415 5.455981 -0.066337
v -3.384358 5.456212 -1.037641
v -0.350554 6.299633 -1.038361
v -2.463878 3.136885 -0.155934
v -2.463201 3.136649 -0.947973
v -0.036563 3.842362 -0.931968
v -0.035693 3.843562 -0.171622
v 0.222638 1.702669 -0.220137
v -1.630604 1.131665 -0.235242
v -1.629192 1.131140 -0.868549
v 0.220304 1.702187 -0.883457
v -1.862697 5.869832 0.470401
v -1.240338 3.503824 0.309064
v -0.792922 1.390970 0.106201
v -0.387146 -0.108714 -0.107957
v -0.389100 -0.108213 -0.995651
v -0.795326 1.391005 -1.209673
v -1.241597 3.502809 -1.412249
v -1.860597 5.866659 -1.573134
v -2.947373 8.841286 -1.392016
v -2.947373 8.841286 0.288307
v -1.216175 9.683434 -0.549928
v -3.106809 9.192985 -0.555667
v -4.578188 7.946914 -0.550130
v -3.730085 5.394882 -0.552056
v -2.748127 3.059217 -0.552363
v -1.861248 1.067154 -0.551669
v -1.597446 -0.176382 -0.549180
v 0.647898 -0.061783 -0.549363
v 0.407261 1.756266 -0.551829
v 0.167838 3.887741 -0.552073
v -0.071845 6.355914 -0.551958
v -0.097539 -0.000000 1.187198
v 1.559321 -0.000000 1.201476
v 0.168498 7.569321 1.422286
v 2.644171 8.238125 1.416875
v 0.042432 7.529810 0.498021
v 2.726908 8.257650 0.503670
v -0.097539 -0.000000 0.733177
v 1.559321 -0.000000 0.718900
v 3.033141 5.699916 1.386498
v 0.147215 5.463817 1.391372
v 0.137684 5.468856 0.527993
v 3.033622 5.698390 0.534077
v 2.385288 2.783287 1.349499
v 0.207959 2.791369 1.334172
v 0.207697 2.789686 0.586106
v 2.385288 2.783287 0.570926
v 1.585222 5.571589 1.862011
v 1.212695 2.787736 1.736759
v 0.734870 -0.000000 1.333829
v 0.734870 -0.000000 0.586547
v 1.212780 2.786775 0.183478
v 1.590028 5.566468 0.060101
v 1.344024 8.144960 0.180570
v 1.344024 8.144960 1.739805
v 3.085993 8.541054 0.961975
v 1.274084 8.496392 0.956650
v -0.318241 7.680513 0.961788
v -0.142531 5.465401 0.960009
v -0.052016 2.796408 0.960432
v -0.293058 -0.000000 0.962430
v 1.616183 -0.000001 0.962292
v 2.621844 2.778134 0.960243
v 3.301506 5.703307 0.960098
v 0.574112 -0.000001 2.000846
v 1.860439 -0.000001 2.013046
v 1.972570 3.751193 2.063562
v 3.377604 3.516240 2.060556
v 1.899761 3.760403 1.550130
v 3.423906 3.506961 1.553268
v 0.578594 -0.000001 1.612884
v 1.886094 -0.000001 1.600684
v 2.912216 1.775202 2.043681
v 1.404590 2.117472 2.046389
v 1.405364 2.120163 1.566780
v 2.910847 1.774749 1.570159
v 2.135202 1.947731 2.307830
v 1.275231 -0.000001 2.126143
v 1.283540 -0.000001 1.487588
v 2.130031 1.946392 1.306864
v 2.699425 3.769965 1.373785
v 2.699425 3.769965 2.239945
v 3.670821 3.567020 1.807858
v 2.745404 3.963633 1.804900
v 1.752470 3.919952 1.807754
v 1.249386 2.167799 1.806766
v 0.407040 -0.000001 1.808781
v 2.019322 -0.000001 1.808663
v 3.042094 1.735837 1.806815
v -1.285523 -0.000001 1.208876
v 0.357379 -0.000001 1.224459
v -4.194322 3.885644 1.398916
v -2.179043 5.242597 1.393790
v -4.295280 3.811656 0.523264
v -2.110828 5.285413 0.528616
v -1.279799 -0.000001 0.713369
v 0.390145 -0.000001 0.697787
v -0.794787 2.458634 1.275291
v -2.638446 1.557757 1.278885
v -2.639886 1.561183 0.642300
v -0.795826 2.457026 0.646786
v -1.741767 1.990326 1.625896
v -0.390050 -0.000001 1.368906
v -0.379438 -0.000001 0.553340
v -1.746000 1.984639 0.297315
v -3.316344 4.761370 0.222510
v -3.316344 4.761370 1.699736
v -1.875537 5.649366 0.962816
v -3.486552 5.055094 0.957771
v -4.664775 3.836463 0.962639
v -2.840805 1.480619 0.960833
v -1.498908 -0.000001 0.963570
v 0.560305 -0.000001 0.963419
v -0.627740 2.526028 0.960898
v 1.415251 -0.000001 -1.333233
v 0.277327 -0.000001 -1.345433
v 1.644522 3.751193 -1.395949
v 0.251047 3.516240 -1.392943
v 1.717331 3.760403 -0.882517
v 0.207160 3.506961 -0.885655
v 1.410769 -0.000001 -0.945271
v 0.257788 -0.000001 -0.933071
v 0.130391 1.775202 -1.376068
v 1.673330 2.117472 -1.378776
v 1.673211 2.120163 -0.899167
v 0.131760 1.774749 -0.902546
v 0.904011 1.947731 -1.640217
v 0.799078 -0.000001 -1.458529
v 0.793497 -0.000001 -0.819975
v 0.907633 1.946392 -0.639251
v 0.951879 3.769965 -0.706172
v 0.951879 3.769965 -1.572332
v 0.009908 3.567020 -1.140245
v 1.047084 3.963633 -1.137287
v 1.926468 3.919952 -1.140141
v 1.875098 2.167799 -1.139153
v 1.556598 -0.000001 -1.141168
v 0.146399 -0.000001 -1.141050
v 0.004437 1.735837 -1.139202
vt 0.320348 0.947592
vt 0.238588 0.904014
vt 0.251889 0.782874
vt 0.330165 0.791131
vt 0.253195 0.364996
vt 0.244033 0.409361
vt 0.220997 0.408763
vt 0.224882 0.365104
vt 0.123914 0.789662
vt 0.197116 0.782200
vt 0.191535 0.895387
vt 0.120067 0.910892
vt 0.214994 0.897308
vt 0.224409 0.780078
vt 0.025194 0.933942
vt 0.409393 0.973363
vt 0.403294 0.802666
vt 0.031875 0.796915
vt 0.319459 0.534103
vt 0.246017 0.528452
vt 0.023336 0.544414
vt 0.398841 0.536268
vt 0.373313 0.419608
vt 0.034595 0.420785
vt 0.196739 0.361726
vt 0.200276 0.410252
vt 0.201773 0.529487
vt 0.129359 0.539109
vt 0.223857 0.527580
vt 0.026079 0.656075
vt 0.403710 0.649711
vt 0.202542 0.641057
vt 0.129711 0.649600
vt 0.249167 0.640329
vt 0.225789 0.638955
vt 0.323948 0.646588
vt 0.059450 0.795884
vt 0.050472 0.929680
vt 0.054253 0.655485
vt 0.052056 0.545797
vt 0.063389 0.431151
vt 0.593091 0.469425
vt 0.654744 0.473788
vt 0.640589 0.580784
vt 0.580524 0.576573
vt 0.633018 0.924582
vt 0.641057 0.887413
vt 0.660482 0.888484
vt 0.656812 0.924735
vt 0.737157 0.579261
vt 0.681076 0.581921
vt 0.688193 0.480618
vt 0.739413 0.496912
vt 0.671611 0.477086
vt 0.660885 0.582574
vt 0.806671 0.512667
vt 0.526609 0.482257
vt 0.528726 0.569533
vt 0.801973 0.576553
vt 0.581626 0.778506
vt 0.640595 0.777589
vt 0.822715 0.781125
vt 0.517376 0.783523
vt 0.533427 0.881644
vt 0.816042 0.884568
vt 0.680434 0.927862
vt 0.677983 0.887059
vt 0.677533 0.777168
vt 0.735963 0.776172
vt 0.659068 0.777116
vt 0.814373 0.676332
vt 0.519581 0.678222
vt 0.677258 0.683243
vt 0.734505 0.679450
vt 0.639873 0.683378
vt 0.658608 0.683901
vt 0.581154 0.679961
vt 0.782826 0.576868
vt 0.788853 0.509566
vt 0.792892 0.676933
vt 0.799145 0.779014
vt 0.792565 0.875418
vt 0.458561 0.040149
vt 0.496265 0.058125
vt 0.479220 0.187677
vt 0.430479 0.175211
vt 0.568198 0.437952
vt 0.511300 0.423029
vt 0.495096 0.397834
vt 0.565024 0.406179
vt 0.563285 0.180699
vt 0.514549 0.189134
vt 0.519399 0.061335
vt 0.557202 0.054641
vt 0.507713 0.060605
vt 0.496784 0.190648
vt 0.608260 0.043522
vt 0.418901 0.025496
vt 0.385195 0.160286
vt 0.627703 0.169841
vt 0.422369 0.285156
vt 0.476049 0.295370
vt 0.640598 0.283266
vt 0.362634 0.273652
vt 0.361145 0.362459
vt 0.639384 0.375564
vt 0.563100 0.379217
vt 0.514910 0.383856
vt 0.508788 0.295978
vt 0.560896 0.288927
vt 0.492410 0.296604
vt 0.607986 0.172653
vt 0.594838 0.046369
vt 0.619289 0.284108
vt 0.615412 0.367809
vt 0.807464 0.332854
vt 0.798603 0.436890
vt 0.771466 0.422785
vt 0.769410 0.324479
vt 0.772492 0.210972
vt 0.768716 0.238285
vt 0.754557 0.238306
vt 0.755243 0.212135
vt 0.745890 0.324585
vt 0.746694 0.422002
vt 0.719350 0.436133
vt 0.708851 0.333033
vt 0.758796 0.418965
vt 0.757621 0.323499
vt 0.657775 0.343620
vt 0.676040 0.458716
vt 0.830509 0.454754
vt 0.846253 0.340125
vt 0.847424 0.245900
vt 0.647762 0.252599
vt 0.737969 0.211089
vt 0.741748 0.240537
vt 0.688066 0.453646
vt 0.672031 0.341364
vt 0.664231 0.256487
vt 0.929114 0.123855
vt 0.921169 0.057170
vt 0.937636 0.042746
vt 0.959542 0.117172
vt 0.908093 0.231545
vt 0.903437 0.257554
vt 0.993562 0.208979
vt 0.891788 0.232268
vt 0.826234 0.115758
vt 0.847632 0.043154
vt 0.863857 0.057659
vt 0.855280 0.123520
vt 0.945664 0.037650
vt 0.816809 0.112684
vt 0.891665 0.132235
vt 0.892234 0.077603
vt 0.900772 0.073624
vt 0.901475 0.130319
vt 0.902676 0.205597
vt 0.889698 0.206330
vt 0.875485 0.232929
vt 0.882542 0.260011
vt 0.883638 0.073758
vt 0.881928 0.130355
vt 0.878432 0.203864
vt 0.248975 0.160135
vt 0.238551 0.022344
vt 0.276981 0.016659
vt 0.304932 0.141970
vt 0.106047 0.353982
vt 0.048397 0.352836
vt 0.331118 0.272711
vt 0.108227 0.318946
vt 0.045164 0.138546
vt 0.074511 0.014315
vt 0.113562 0.020994
vt 0.100227 0.158259
vt 0.294351 0.013309
vt 0.026479 0.132916
vt 0.173992 0.181199
vt 0.176130 0.029034
vt 0.193302 0.027824
vt 0.194643 0.176642
vt 0.198649 0.292052
vt 0.170302 0.303562
vt 0.092496 0.287374
vt 0.036786 0.311708
vt 0.158597 0.027439
vt 0.153418 0.176304
vt 0.148445 0.289222
vt 0.323931 0.136758
vt 0.029231 0.334883
vt 0.014515 0.265934
vt 0.057806 0.010693
vt 0.038305 0.263704
vt 0.251884 0.292092
vt 0.304962 0.270509
vt 0.156183 0.331732
vt 0.969543 0.114289
vt 0.893239 0.266627
vt 0.789458 0.199355
vt 0.840099 0.038665
vt 0.805924 0.197441
vt 0.938499 0.214420
vt 0.974473 0.205883
vt 0.840970 0.207340
vt 0.861306 0.341908
vt 0.842562 0.459808
vt 0.755061 0.176105
vt 0.867782 0.241613
vt 0.743779 0.181330
vt 0.808303 0.231874
vt 0.702312 0.241439
vt 0.766646 0.183828
vt 0.364766 0.154669
vt 0.404914 0.020447
vt 0.340438 0.270933
vt 0.631264 0.387920
vt 0.332108 0.366383
vt 0.412721 0.386230
vt 0.468157 0.388694
vt 0.621904 0.415126
vt 0.506437 0.568821
vt 0.503518 0.485453
vt 0.496744 0.678371
vt 0.493373 0.787028
vt 0.653455 0.974231
vt 0.506521 0.891627
vt 0.669468 0.968189
vt 0.587431 0.894340
vt 0.734651 0.891301
vt 0.638329 0.962466
vt 0.435769 0.803802
vt 0.441284 0.979325
vt 0.433941 0.648682
vt 0.428159 0.532525
vt 0.228222 0.306184
vt 0.406228 0.407901
vt 0.209242 0.313577
vt 0.308552 0.402726
vt 0.132156 0.408572
vt 0.246375 0.319991
vn -0.077421 -0.065990 0.994812
vn 0.372253 -0.223497 0.900820
vn 0.436358 -0.210515 0.874800
vn -0.024789 -0.061991 0.997769
vn 0.012921 0.250136 0.968124
vn 0.419448 0.227700 0.878758
vn 0.885921 0.462736 0.031926
vn -0.142932 0.989731 -0.001631
vn -0.024789 -0.061991 -0.997769
vn 0.436808 -0.210779 -0.874512
vn 0.373549 -0.224149 -0.900121
vn -0.077421 -0.065990 -0.994812
vn 0.916047 -0.401071 0.000610
vn 0.922885 -0.385075 -0.000120
vn -0.947724 0.319091 -0.000134
vn -0.483548 0.107098 0.868742
vn -0.467216 0.082437 0.880292
vn -0.969451 0.245284 -0.000147
vn 0.024548 0.005678 0.999683
vn 0.471600 -0.047881 0.880512
vn -0.993211 0.109000 0.040631
vn -0.465115 0.062361 0.883051
vn -0.434195 0.245442 0.866737
vn -0.857931 0.511584 0.047296
vn 0.011192 0.247550 -0.968810
vn 0.427308 0.224335 -0.875832
vn 0.470281 -0.050582 -0.881066
vn 0.024483 0.003174 -0.999695
vn 0.992770 -0.116989 0.026867
vn -0.990628 0.136587 -0.000097
vn -0.487161 0.063039 0.871034
vn 0.475188 -0.170978 -0.863112
vn 0.018139 -0.051700 -0.998498
vn 0.475298 -0.171008 0.863046
vn 0.946668 -0.322211 -0.000022
vn 0.018139 -0.051700 0.998498
vn -0.467824 0.082567 -0.879957
vn -0.485614 0.107555 -0.867532
vn -0.486958 0.063001 -0.871150
vn -0.462189 0.057101 -0.884941
vn -0.441438 0.236816 -0.865477
vn 0.057996 -0.071248 0.995771
vn 0.474065 0.030065 0.879976
vn 0.473883 0.024784 0.880239
vn 0.014786 -0.084276 0.996333
vn -0.071840 0.226212 0.971425
vn 0.328065 0.355384 0.875257
vn 0.692260 0.720865 0.033628
vn -0.463880 0.885897 -0.001631
vn 0.014731 -0.084252 -0.996336
vn 0.473647 0.024751 -0.880367
vn 0.475192 0.030563 -0.879351
vn 0.058072 -0.071022 -0.995783
vn 0.987076 0.160243 -0.001615
vn 0.991560 0.129626 -0.002283
vn -0.976039 -0.217594 0.000017
vn -0.380947 -0.158680 0.910879
vn -0.420880 -0.194008 0.886127
vn -0.937483 -0.348027 -0.001482
vn 0.019625 -0.005289 0.999793
vn 0.463076 0.126077 0.877306
vn -0.939841 -0.338757 0.044072
vn -0.434648 -0.152946 0.887518
vn -0.483220 0.052711 0.873911
vn -0.987335 0.151116 0.048303
vn -0.072295 0.222863 -0.972165
vn 0.336336 0.354579 -0.872440
vn 0.463235 0.122953 -0.877665
vn 0.020653 -0.007457 -0.999759
vn 0.967232 0.252298 0.028444
vn -0.917863 -0.396897 -0.000201
vn -0.440153 -0.206786 0.873787
vn 0.497713 0.031271 -0.866778
vn 0.025629 -0.075594 -0.996809
vn 0.498178 0.031552 0.866501
vn 0.994623 0.103556 -0.001404
vn 0.025633 -0.075538 0.996813
vn -0.421615 -0.194180 -0.885740
vn -0.383188 -0.159154 -0.909855
vn -0.439911 -0.206746 -0.873919
vn -0.428764 -0.156065 -0.889834
vn -0.487281 0.041665 -0.872250
vn -0.037211 -0.104207 0.993859
vn 0.414225 -0.197588 0.888469
vn 0.462731 -0.150552 0.873621
vn -0.002606 -0.077443 0.996993
vn -0.021632 0.252417 0.967377
vn 0.386296 0.281061 0.878510
vn 0.809256 0.586631 0.031125
vn -0.250502 0.968115 -0.001631
vn -0.002790 -0.077428 -0.996994
vn 0.463603 -0.150921 -0.873095
vn 0.415604 -0.198081 -0.887715
vn -0.037109 -0.104292 -0.993854
vn 0.946252 -0.323431 0.000356
vn 0.964604 -0.263702 0.000287
vn -0.996984 0.077609 0.000305
vn -0.464999 -0.018654 0.885115
vn -0.462116 -0.021009 0.886571
vn -0.999901 0.013692 0.003093
vn 0.033255 -0.014769 0.999338
vn 0.478432 -0.026124 0.877736
vn -0.998065 -0.045326 0.042572
vn -0.464073 -0.012134 0.885714
vn -0.455489 0.185266 0.870750
vn -0.905749 0.421302 0.046073
vn -0.022810 0.249082 -0.968214
vn 0.394611 0.278441 -0.875644
vn 0.477798 -0.029056 -0.877989
vn 0.033730 -0.017133 -0.999284
vn 0.997873 -0.060047 0.025368
vn -0.462028 -0.021342 -0.886609
vn -0.466693 -0.018634 -0.884223
vn -0.459276 -0.017180 -0.888128
vn -0.461161 0.175350 -0.869818
vn 0.002644 -0.027225 0.999626
vn -0.085599 -0.028933 0.995910
vn 0.345239 -0.235105 0.908590
vn 0.425910 -0.189511 0.884696
vn 0.062009 0.190337 0.979758
vn 0.463335 0.059975 0.884151
vn 0.991464 0.125668 0.034748
vn 0.175429 0.984491 -0.001631
vn 0.424202 -0.190539 -0.885295
vn 0.348859 -0.234194 -0.907442
vn -0.084220 -0.029157 -0.996020
vn 0.001807 -0.028291 -0.999598
vn 0.859750 -0.509799 0.030567
vn 0.914498 -0.402937 0.036528
vn -0.945255 0.324677 0.032823
vn -0.934360 0.356308 -0.004065
vn -0.464269 0.147410 0.873341
vn -0.414403 0.131068 0.900606
vn -0.380212 0.294578 0.876734
vn -0.761483 0.645794 0.055634
vn 0.060660 0.187594 -0.980372
vn 0.468022 0.054127 -0.882058
vn -0.464997 0.146532 -0.873102
vn -0.414327 0.126776 -0.901255
vn -0.390810 0.289206 -0.873858
vn 0.031605 -0.048874 0.998305
vn 0.128060 -0.015542 0.991645
vn 0.495266 0.203208 0.844641
vn 0.417265 0.169758 0.892789
vn -0.081946 0.156233 0.984315
vn 0.301472 0.349802 0.886991
vn 0.628845 0.776658 0.036815
vn -0.549653 0.835391 -0.001630
vn 0.417351 0.166729 -0.893320
vn 0.499065 0.208373 -0.841139
vn 0.127233 -0.013795 -0.991777
vn 0.032544 -0.050706 -0.998183
vn 0.906219 0.422471 0.016869
vn 0.914894 0.401606 0.041015
vn -0.778478 -0.624842 0.059541
vn -0.740450 -0.672091 -0.005171
vn -0.278340 -0.302352 0.911652
vn -0.345424 -0.293478 0.891377
vn -0.462545 -0.099470 0.880998
vn -0.994376 -0.092671 0.051268
vn -0.080736 0.153113 -0.984905
vn 0.309284 0.348895 -0.884656
vn -0.278360 -0.303923 -0.911124
vn -0.338772 -0.296469 -0.892939
vn -0.467134 -0.112987 -0.876938
vn 0.008337 -0.025924 -0.999629
vn 0.013798 -0.071191 -0.997367
vn -0.442909 -0.065600 -0.894164
vn -0.463672 -0.019105 -0.885801
vn -0.016707 0.211321 -0.977274
vn -0.458753 0.202829 -0.865105
vn -0.920893 0.388369 -0.033550
vn -0.129684 0.991554 0.001799
vn -0.462599 -0.020666 0.886327
vn -0.446338 -0.063079 0.892638
vn 0.012847 -0.070275 0.997445
vn 0.008862 -0.027596 0.999580
vn -0.996229 -0.083915 -0.022070
vn -0.999026 -0.030475 -0.031897
vn 0.996288 -0.076960 -0.038575
vn 0.989864 -0.141907 0.005652
vn 0.428894 -0.090645 -0.898796
vn 0.446709 -0.041171 -0.893732
vn 0.416339 0.180973 -0.891016
vn 0.903563 0.424677 -0.056771
vn -0.017055 0.207480 0.978090
vn -0.461873 0.195670 0.865094
vn 0.429588 -0.091656 0.898361
vn 0.444113 -0.045148 0.894832
vn 0.428060 0.177292 0.886189
s 1
g cactus
usemtl cactusSG
f 24/1/1 2/2/2 17/3/3 23/4/4
f 30/5/5 4/6/6 31/7/7 32/8/8
f 26/9/9 20/10/10 8/11/11 25/12/12
f 2/2/2 38/13/13 39/14/14 17/3/3
f 37/234/15 1/16/16 18/17/17 36/233/18
f 30/240/5 21/19/19 9/20/20 4/6/6
f 34/236/21 10/22/22 3/23/23 33/238/24
f 29/241/25 6/26/26 12/27/27 28/28/28
f 9/20/20 41/29/29 31/7/7 4/6/6
f 35/235/30 13/31/31 10/22/22 34/236/21
f 28/28/28 12/27/27 15/32/32 27/33/33
f 16/34/34 40/35/35 41/29/29 9/20/20
f 22/36/36 16/34/34 9/20/20 21/19/19
f 23/4/4 17/3/3 16/34/34 22/36/36
f 36/233/18 18/17/17 13/31/31 35/235/30
f 27/33/33 15/32/32 20/10/10 26/9/9
f 17/3/3 39/14/14 40/35/35 16/34/34
f 13/31/31 22/36/36 21/19/19 10/22/22
f 18/17/17 23/4/4 22/36/36 13/31/31
f 1/16/16 24/1/1 23/4/4 18/17/17
f 19/37/37 26/9/9 25/12/12 7/38/38
f 14/39/39 27/33/33 26/9/9 19/37/37
f 11/40/40 28/28/28 27/33/33 14/39/39
f 5/41/41 29/241/25 28/28/28 11/40/40
f 3/242/23 30/5/5 32/8/8 33/237/24
f 10/22/22 21/19/19 30/240/5 3/23/23
f 32/8/8 31/7/7 6/26/26 29/25/25
f 33/237/24 32/8/8 29/25/25 5/239/41
f 11/40/40 34/21/21 33/24/24 5/41/41
f 14/39/39 35/30/30 34/21/21 11/40/40
f 19/37/37 36/18/18 35/30/30 14/39/39
f 7/38/38 37/15/15 36/18/18 19/37/37
f 39/14/14 38/13/13 8/11/11 20/10/10
f 40/35/35 39/14/14 20/10/10 15/32/32
f 41/29/29 40/35/35 15/32/32 12/27/27
f 31/7/7 41/29/29 12/27/27 6/26/26
s 5
f 65/42/42 43/43/43 58/44/44 64/45/45
f 71/46/46 45/47/47 72/48/48 73/49/49
f 67/50/50 61/51/51 49/52/52 66/53/53
f 43/43/43 79/54/54 80/55/55 58/44/44
f 78/224/56 42/57/57 59/58/58 77/223/59
f 71/230/46 62/60/60 50/61/61 45/47/47
f 75/226/62 51/63/63 44/64/64 74/228/65
f 70/231/66 47/67/67 53/68/68 69/69/69
f 50/61/61 82/70/70 72/48/48 45/47/47
f 76/225/71 54/72/72 51/63/63 75/226/62
f 69/69/69 53/68/68 56/73/73 68/74/74
f 57/75/75 81/76/76 82/70/70 50/61/61
f 63/77/77 57/75/75 50/61/61 62/60/60
f 64/45/45 58/44/44 57/75/75 63/77/77
f 77/223/59 59/58/58 54/72/72 76/225/71
f 68/74/74 56/73/73 61/51/51 67/50/50
f 58/44/44 80/55/55 81/76/76 57/75/75
f 54/72/72 63/77/77 62/60/60 51/63/63
f 59/58/58 64/45/45 63/77/77 54/72/72
f 42/57/57 65/42/42 64/45/45 59/58/58
f 60/78/78 67/50/50 66/53/53 48/79/79
f 55/80/80 68/74/74 67/50/50 60/78/78
f 52/81/81 69/69/69 68/74/74 55/80/80
f 46/82/82 70/231/66 69/69/69 52/81/81
f 44/232/64 71/46/46 73/49/49 74/227/65
f 51/63/63 62/60/60 71/230/46 44/64/64
f 73/49/49 72/48/48 47/67/67 70/66/66
f 74/227/65 73/49/49 70/66/66 46/229/82
f 52/81/81 75/62/62 74/65/65 46/82/82
f 55/80/80 76/71/71 75/62/62 52/81/81
f 60/78/78 77/59/59 76/71/71 55/80/80
f 48/79/79 78/56/56 77/59/59 60/78/78
f 80/55/55 79/54/54 49/52/52 61/51/51
f 81/76/76 80/55/55 61/51/51 56/73/73
f 82/70/70 81/76/76 56/73/73 53/68/68
f 72/48/48 82/70/70 53/68/68 47/67/67
s 9
f 101/83/83 84/84/84 95/85/85 100/86/86
f 106/87/87 86/88/88 107/89/89 108/90/90
f 103/91/91 98/92/92 90/93/93 102/94/94
f 84/84/84 113/95/95 114/96/96 95/85/85
f 112/216/97 83/98/98 96/99/99 111/215/100
f 106/220/87 99/101/101 91/102/102 86/221/88
f 110/217/103 92/104/104 85/105/105 109/219/106
f 105/107/107 88/108/108 94/109/109 104/110/110
f 91/102/102 115/111/111 107/89/89 86/221/88
f 99/101/101 100/86/86 95/85/85 91/102/102
f 110/217/103 111/215/100 96/99/99 92/104/104
f 94/109/109 98/92/92 103/91/91 104/110/110
f 91/102/102 95/85/85 114/96/96 115/111/111
f 92/104/104 96/99/99 100/86/86 99/101/101
f 83/98/98 101/83/83 100/86/86 96/99/99
f 97/112/112 103/91/91 102/94/94 89/113/113
f 103/91/91 97/112/112 93/114/114 104/110/110
f 87/115/115 105/107/107 104/110/110 93/114/114
f 85/222/105 106/87/87 108/90/90 109/218/106
f 92/104/104 99/101/101 106/220/87 85/105/105
f 108/90/90 107/89/89 88/108/108 105/107/107
f 109/218/106 108/90/90 105/107/107 87/115/115
f 93/114/114 110/103/103 109/106/106 87/115/115
f 93/114/114 97/112/112 111/100/100 110/103/103
f 89/113/113 112/97/97 111/100/100 97/112/112
f 114/96/96 113/95/95 90/93/93 98/92/92
f 114/96/96 98/92/92 94/109/109 115/111/111
f 107/89/89 115/111/111 94/109/109 88/108/108
s 12
f 128/116/116 129/117/117 117/118/118 124/119/119
f 133/120/120 119/121/121 134/122/122 135/123/123
f 127/124/124 123/125/125 130/126/126 131/127/127
f 117/118/118 139/128/128 140/129/129 124/119/119
f 137/207/130 138/208/131 116/132/132 125/133/133
f 133/212/120 128/116/116 124/119/119 119/121/121
f 137/207/130 125/133/133 118/134/134 136/210/135
f 132/213/136 121/137/137 127/124/124 131/127/127
f 124/119/119 140/129/129 134/122/122 119/121/121
f 116/132/132 129/117/117 128/116/116 125/133/133
f 130/126/126 122/138/138 126/139/139 131/127/127
f 120/140/140 132/213/136 131/127/127 126/139/139
f 118/214/134 133/120/120 135/123/123 136/209/135
f 125/133/133 128/116/116 133/212/120 118/134/134
f 135/123/123 134/122/122 121/137/137 132/136/136
f 136/209/135 135/123/123 132/136/136 120/211/140
f 126/139/139 137/130/130 136/135/135 120/140/140
f 126/139/139 122/138/138 138/131/131 137/130/130
f 139/128/128 123/125/125 127/124/124 140/129/129
f 134/122/122 140/129/129 127/124/124 121/137/137
s 15
f 153/141/141 154/142/142 142/143/143 149/144/144
f 158/145/145 144/146/146 159/200/147 160/148/148
f 152/149/149 148/150/150 155/151/151 156/152/152
f 142/143/143 164/153/153 165/199/154 149/144/144
f 162/155/155 163/156/156 141/157/157 150/158/158
f 158/204/145 153/141/141 149/144/144 144/205/146
f 162/155/155 150/158/158 143/159/159 161/160/160
f 157/206/161 146/203/162 152/149/149 156/152/152
f 149/144/144 165/199/154 159/147/147 144/205/146
f 141/157/157 154/142/142 153/141/141 150/158/158
f 155/151/151 147/163/163 151/164/164 156/152/152
f 145/165/165 157/206/161 156/152/152 151/164/164
f 143/159/159 158/145/145 160/148/148 161/160/160
f 150/158/158 153/141/141 158/204/145 143/159/159
f 160/148/148 159/200/147 146/162/162 157/161/161
f 161/160/160 160/148/148 157/161/161 145/165/165
f 151/164/164 162/155/155 161/160/160 145/165/165
f 151/164/164 147/163/163 163/156/156 162/155/155
f 164/202/153 148/150/150 152/149/149 165/154/154
f 159/201/147 165/154/154 152/149/149 146/203/162
s 18
f 178/166/166 179/167/167 167/168/168 174/169/169
f 183/170/170 169/171/171 184/192/172 185/173/173
f 177/174/174 173/175/175 180/176/176 181/177/177
f 167/168/168 189/178/178 190/191/179 174/169/169
f 187/180/180 188/181/181 166/182/182 175/183/183
f 183/196/170 178/166/166 174/169/169 169/197/171
f 187/180/180 175/183/183 168/184/184 186/185/185
f 182/186/186 171/195/187 177/174/174 181/177/177
f 174/169/169 190/191/179 184/172/172 169/197/171
f 166/182/182 179/167/167 178/166/166 175/183/183
f 180/176/176 172/188/188 176/189/189 181/177/177
f 170/190/190 182/186/186 181/177/177 176/189/189
f 168/198/184 183/170/170 185/173/173 186/185/185
f 175/183/183 178/166/166 183/196/170 168/184/184
f 185/173/173 184/192/172 171/187/187 182/186/186
f 186/185/185 185/173/173 182/186/186 170/190/190
f 176/189/189 187/180/180 186/185/185 170/190/190
f 176/189/189 172/188/188 188/181/181 187/180/180
f 189/194/178 173/175/175 177/174/174 190/179/179
f 184/193/172 190/179/179 177/174/174 171/195/187
